<svg width="105" height="10" viewBox="0 0 105 10" fill="none" xmlns="http://www.w3.org/2000/svg">
<path d="M0.668 9V0.648H4.16C4.744 0.648 5.248 0.756 5.672 0.972C6.16 1.22 6.548 1.576 6.836 2.04C7.124 2.496 7.268 3 7.268 3.552C7.268 4.104 7.124 4.612 6.836 5.076C6.556 5.54 6.172 5.896 5.684 6.144C5.268 6.36 4.76 6.468 4.16 6.468H2.852V9H0.668ZM15.0348 0.648V1.092H12.5388V8.556H15.0348V9H9.62281V8.556H12.1068V1.092H9.62281V0.648H15.0348ZM18.2536 0.648L21.2176 5.112L24.1576 0.648H24.6856L21.4336 5.58V9H20.9896V5.58L17.7256 0.648H18.2536ZM26.7164 0.648H27.1604V5.808C27.1604 6.336 27.2924 6.824 27.5564 7.272C27.8204 7.72 28.1764 8.076 28.6244 8.34C29.0724 8.604 29.5604 8.736 30.0884 8.736C30.6164 8.736 31.1044 8.604 31.5524 8.34C32.0004 8.076 32.3564 7.72 32.6204 7.272C32.8844 6.824 33.0164 6.336 33.0164 5.808V0.648H33.4604V5.808C33.4604 6.416 33.3084 6.98 33.0044 7.5C32.7004 8.012 32.2884 8.42 31.7684 8.724C31.2564 9.028 30.6964 9.18 30.0884 9.18C29.4804 9.18 28.9164 9.028 28.3964 8.724C27.8844 8.42 27.4764 8.012 27.1724 7.5C26.8684 6.98 26.7164 6.416 26.7164 5.808V0.648ZM39.1513 5.004C38.4713 4.868 37.9153 4.72 37.4833 4.56C37.0593 4.392 36.7233 4.168 36.4753 3.888C36.2352 3.6 36.1152 3.232 36.1152 2.784C36.1152 2.32 36.2352 1.912 36.4753 1.56C36.7233 1.208 37.0673 0.936 37.5073 0.744C37.9553 0.552 38.4713 0.456 39.0553 0.456C39.6153 0.456 40.1273 0.576 40.5912 0.816C41.0633 1.048 41.4353 1.376 41.7073 1.8C41.9793 2.224 42.1153 2.708 42.1153 3.252H41.6713C41.6713 2.78 41.5553 2.364 41.3233 2.004C41.0913 1.644 40.7753 1.368 40.3753 1.176C39.9753 0.976 39.5313 0.875999 39.0433 0.875999C38.6113 0.875999 38.2073 0.944 37.8313 1.08C37.4553 1.216 37.1473 1.424 36.9073 1.704C36.6753 1.984 36.5593 2.336 36.5593 2.76C36.5593 3.144 36.6713 3.452 36.8953 3.684C37.1193 3.908 37.4113 4.08 37.7713 4.2C38.1313 4.32 38.6353 4.448 39.2833 4.584C39.9393 4.72 40.4473 4.852 40.8073 4.98C41.1753 5.1 41.4833 5.304 41.7313 5.592C41.9873 5.88 42.1153 6.284 42.1153 6.804C42.1153 7.324 41.9753 7.764 41.6953 8.124C41.4233 8.476 41.0593 8.74 40.6033 8.916C40.1473 9.092 39.6513 9.18 39.1153 9.18C38.4513 9.18 37.8673 9.056 37.3633 8.808C36.8593 8.56 36.4713 8.212 36.1993 7.764C35.9353 7.308 35.8033 6.788 35.8033 6.204H36.2473C36.2473 6.716 36.3593 7.164 36.5833 7.548C36.8153 7.932 37.1473 8.232 37.5793 8.448C38.0113 8.656 38.5233 8.76 39.1153 8.76C39.8513 8.76 40.4593 8.584 40.9393 8.232C41.4273 7.88 41.6713 7.4 41.6713 6.792C41.6713 6.376 41.5673 6.056 41.3593 5.832C41.1513 5.608 40.8873 5.448 40.5673 5.352C40.2553 5.248 39.7833 5.132 39.1513 5.004ZM44.6381 9V0.648H45.0821V4.596H50.6261V0.648H51.0701V9H50.6261V5.04H45.0821V9H44.6381ZM61.6837 0.636H69.5557L65.6197 9.168L61.6837 0.636ZM65.6197 8.112L68.8717 1.08H62.3797L65.6197 8.112ZM71.6225 0.648H77.5025V1.092H72.0665V4.476H76.7945V4.92H72.0665V8.556H77.5025V9H71.6225V0.648ZM85.1973 0.924C85.6773 1.148 86.0533 1.48 86.3253 1.92C86.6053 2.36 86.7453 2.848 86.7453 3.384C86.7453 4.008 86.5533 4.568 86.1693 5.064C85.7933 5.552 85.3093 5.876 84.7173 6.036L86.8413 9H86.3133L84.2613 6.12L83.8773 6.132H80.8653V9H80.4213V0.648H83.6013C83.9533 0.648 84.2533 0.671999 84.5013 0.719999C84.7573 0.759999 84.9893 0.827999 85.1973 0.924ZM83.9973 5.688C84.4133 5.688 84.7973 5.584 85.1493 5.376C85.5013 5.168 85.7813 4.888 85.9893 4.536C86.1973 4.184 86.3013 3.8 86.3013 3.384C86.3013 2.92 86.1773 2.5 85.9293 2.124C85.6893 1.748 85.3533 1.468 84.9213 1.284C84.6093 1.156 84.1693 1.092 83.6013 1.092H80.8653V5.688H83.9973ZM89.3401 9H88.8961V0.648H89.3761L92.2921 5.796L95.1961 0.648H95.6401V9H95.1961V1.536L92.4961 6.3H92.0761L89.3401 1.476V9ZM100.923 0.648H101.391L104.823 9H104.343L103.215 6.24H99.0989L97.9589 9H97.4909L100.923 0.648ZM99.2789 5.808H103.035L101.151 1.224L99.2789 5.808Z" fill="white"/>
</svg>
