<svg width="53" height="13" viewBox="0 0 53 13" fill="none" xmlns="http://www.w3.org/2000/svg">
<path d="M5.764 7.152C5.708 7.152 5.64 7.148 5.56 7.14C5.48 7.132 5.44 7.112 5.44 7.08C5.44 7.032 5.484 6.968 5.572 6.888C5.66 6.8 5.756 6.724 5.86 6.66C5.972 6.588 6.048 6.552 6.088 6.552C6.168 6.552 6.244 6.556 6.316 6.564C6.396 6.572 6.476 6.576 6.556 6.576C6.996 6.576 7.464 6.528 7.96 6.432C8.464 6.328 8.908 6.168 9.292 5.952C9.564 5.8 9.824 5.616 10.072 5.4C10.32 5.176 10.524 4.924 10.684 4.644C10.844 4.356 10.924 4.048 10.924 3.72C10.924 3.528 10.888 3.344 10.816 3.168C10.752 2.984 10.664 2.816 10.552 2.664C10.336 2.376 10.06 2.14 9.724 1.956C9.388 1.772 9.024 1.632 8.632 1.536C8.248 1.44 7.86 1.372 7.468 1.332C7.076 1.292 6.712 1.272 6.376 1.272C5.944 1.272 5.48 1.3 4.984 1.356C4.488 1.404 4.004 1.504 3.532 1.656C3.068 1.808 2.652 2.032 2.284 2.328C1.924 2.616 1.66 2.996 1.492 3.468C1.436 3.636 1.408 3.82 1.408 4.02C1.408 4.204 1.44 4.388 1.504 4.572C1.576 4.756 1.7 4.892 1.876 4.98C1.892 4.988 1.94 4.992 2.02 4.992C2.1 4.992 2.156 4.992 2.188 4.992C2.204 4.992 2.236 4.996 2.284 5.004C2.34 5.004 2.368 5.02 2.368 5.052C2.368 5.1 2.328 5.14 2.248 5.172C2.176 5.204 2.12 5.22 2.08 5.22C1.904 5.22 1.768 5.168 1.672 5.064C1.576 4.96 1.496 4.908 1.432 4.908C1.424 4.908 1.416 4.912 1.408 4.92C1.4 4.928 1.388 4.948 1.372 4.98C1.356 5.004 1.34 5.016 1.324 5.016C1.276 5.016 1.232 4.976 1.192 4.896C1.16 4.808 1.132 4.716 1.108 4.62C1.092 4.516 1.084 4.444 1.084 4.404C1.084 4.292 1.096 4.164 1.12 4.02C1.152 3.876 1.184 3.752 1.216 3.648C1.384 3.096 1.652 2.636 2.02 2.268C2.388 1.892 2.812 1.592 3.292 1.368C3.78 1.136 4.292 0.972 4.828 0.875999C5.372 0.771999 5.904 0.719999 6.424 0.719999C6.808 0.719999 7.212 0.747999 7.636 0.804C8.068 0.852 8.492 0.94 8.908 1.068C9.332 1.196 9.724 1.372 10.084 1.596C10.452 1.812 10.76 2.084 11.008 2.412C11.144 2.596 11.252 2.796 11.332 3.012C11.412 3.228 11.452 3.452 11.452 3.684C11.452 4.06 11.36 4.4 11.176 4.704C10.992 5.008 10.756 5.276 10.468 5.508C10.18 5.74 9.88 5.936 9.568 6.096C9.24 6.264 8.856 6.432 8.416 6.6C7.976 6.76 7.528 6.892 7.072 6.996C6.624 7.1 6.212 7.152 5.836 7.152H5.764ZM1.108 10.596C1.02 10.596 0.916 10.592 0.796 10.584C0.676 10.576 0.58 10.552 0.508 10.512C0.476 10.488 0.416 10.448 0.328 10.392C0.24 10.344 0.196 10.296 0.196 10.248C0.196 10.192 0.22 10.164 0.268 10.164C0.308 10.172 0.328 10.144 0.328 10.08C0.328 10.016 0.316 9.952 0.292 9.888C0.268 9.824 0.256 9.76 0.256 9.696C0.256 9.624 0.276 9.524 0.316 9.396C0.356 9.276 0.42 9.216 0.508 9.216C0.532 9.216 0.544 9.228 0.544 9.252C0.544 9.332 0.524 9.408 0.484 9.48C0.436 9.552 0.412 9.624 0.412 9.696C0.412 9.808 0.46 9.916 0.556 10.02C0.644 10.124 0.756 10.208 0.892 10.272C1.02 10.344 1.136 10.38 1.24 10.38C1.28 10.38 1.324 10.38 1.372 10.38C1.42 10.38 1.464 10.376 1.504 10.368C1.904 10.312 2.276 10.124 2.62 9.804C2.972 9.484 3.296 9.08 3.592 8.592C3.896 8.096 4.172 7.56 4.42 6.984C4.668 6.4 4.892 5.82 5.092 5.244C5.292 4.668 5.468 4.132 5.62 3.636C5.78 3.14 5.912 2.736 6.016 2.424C6.056 2.296 6.1 2.196 6.148 2.124C6.196 2.044 6.272 1.964 6.376 1.884C6.52 1.772 6.688 1.692 6.88 1.644C7.08 1.588 7.268 1.56 7.444 1.56C7.46 1.56 7.484 1.564 7.516 1.572C7.548 1.58 7.564 1.6 7.564 1.632C7.564 1.664 7.536 1.688 7.48 1.704C7.432 1.712 7.4 1.716 7.384 1.716C7.272 1.716 7.152 1.8 7.024 1.968C6.904 2.136 6.784 2.348 6.664 2.604C6.544 2.86 6.432 3.124 6.328 3.396C6.224 3.668 6.132 3.916 6.052 4.14C5.98 4.356 5.928 4.508 5.896 4.596C5.8 4.868 5.704 5.144 5.608 5.424C5.512 5.696 5.412 5.968 5.308 6.24C5.188 6.56 5.06 6.88 4.924 7.2C4.796 7.52 4.648 7.832 4.48 8.136C4.232 8.584 3.968 8.992 3.688 9.36C3.416 9.736 3.088 10.032 2.704 10.248C2.328 10.472 1.852 10.588 1.276 10.596H1.108ZM12.739 3.84C12.675 3.84 12.575 3.816 12.439 3.768C12.311 3.712 12.247 3.644 12.247 3.564C12.247 3.556 12.247 3.552 12.247 3.552C12.255 3.544 12.259 3.536 12.259 3.528C12.299 3.448 12.387 3.4 12.523 3.384C12.667 3.368 12.775 3.344 12.847 3.312C13.007 3.248 13.163 3.196 13.315 3.156C13.467 3.116 13.611 3.044 13.747 2.94C13.779 2.956 13.795 2.972 13.795 2.988C13.795 3.02 13.759 3.064 13.687 3.12C13.623 3.176 13.579 3.224 13.555 3.264C13.523 3.312 13.451 3.384 13.339 3.48C13.235 3.568 13.123 3.652 13.003 3.732C12.883 3.804 12.795 3.84 12.739 3.84ZM10.711 9.036C10.583 9.036 10.495 9.004 10.447 8.94C10.399 8.876 10.375 8.784 10.375 8.664C10.375 8.4 10.427 8.08 10.531 7.704C10.643 7.328 10.767 6.948 10.903 6.564C11.039 6.172 11.147 5.824 11.227 5.52C11.259 5.408 11.335 5.332 11.455 5.292C11.583 5.244 11.691 5.188 11.779 5.124C11.907 5.036 12.043 4.964 12.187 4.908C12.331 4.844 12.483 4.812 12.643 4.812C12.683 4.812 12.707 4.82 12.715 4.836C12.731 4.852 12.739 4.864 12.739 4.872C12.739 4.92 12.711 4.944 12.655 4.944C12.543 4.944 12.427 5.012 12.307 5.148C12.187 5.276 12.067 5.444 11.947 5.652C11.827 5.86 11.719 6.076 11.623 6.3C11.527 6.524 11.443 6.732 11.371 6.924C11.299 7.108 11.251 7.244 11.227 7.332C11.187 7.46 11.147 7.612 11.107 7.788C11.067 7.956 11.047 8.112 11.047 8.256C11.047 8.312 11.055 8.38 11.071 8.46C11.087 8.532 11.135 8.568 11.215 8.568C11.271 8.568 11.331 8.548 11.395 8.508C11.571 8.404 11.743 8.264 11.911 8.088C12.087 7.904 12.247 7.708 12.391 7.5C12.543 7.284 12.663 7.088 12.751 6.912C12.767 6.92 12.775 6.936 12.775 6.96C12.775 7.008 12.747 7.08 12.691 7.176C12.635 7.264 12.571 7.36 12.499 7.464C12.427 7.568 12.359 7.66 12.295 7.74C12.239 7.82 12.211 7.868 12.211 7.884C12.203 7.948 12.191 7.996 12.175 8.028C12.159 8.052 12.135 8.096 12.103 8.16C12.007 8.256 11.879 8.376 11.719 8.52C11.559 8.656 11.391 8.776 11.215 8.88C11.039 8.984 10.871 9.036 10.711 9.036ZM11.2554 12.384C11.2154 12.384 11.1274 12.376 10.9914 12.36C10.8474 12.344 10.7154 12.316 10.5954 12.276C10.4674 12.244 10.4034 12.204 10.4034 12.156C10.4034 12.156 10.4034 12.152 10.4034 12.144C10.4034 12.136 10.4074 12.132 10.4154 12.132C10.4234 12.132 10.4274 12.132 10.4274 12.132C10.4274 12.14 10.4274 12.144 10.4274 12.144L10.5114 12.156C10.4794 12.084 10.4634 11.992 10.4634 11.88C10.4634 11.824 10.4714 11.752 10.4874 11.664C10.4954 11.584 10.5114 11.516 10.5354 11.46C10.5434 11.444 10.5714 11.396 10.6194 11.316C10.6674 11.236 10.7194 11.16 10.7754 11.088C10.8234 11.016 10.8514 10.98 10.8594 10.98V10.992C10.8594 11 10.8314 11.056 10.7754 11.16C10.7194 11.272 10.6914 11.384 10.6914 11.496C10.6914 11.624 10.7394 11.744 10.8354 11.856C10.9234 11.968 11.0354 12.056 11.1714 12.12C11.3074 12.192 11.4354 12.228 11.5554 12.228C11.7874 12.228 12.0114 12.132 12.2274 11.94C12.4434 11.748 12.6514 11.496 12.8514 11.184C13.0514 10.872 13.2354 10.528 13.4034 10.152C13.5794 9.776 13.7354 9.4 13.8714 9.024C14.0074 8.648 14.1274 8.3 14.2314 7.98C14.3354 7.66 14.4154 7.408 14.4714 7.224C14.4714 7.216 14.4714 7.212 14.4714 7.212C14.4794 7.204 14.4834 7.196 14.4834 7.188C14.4834 7.164 14.4754 7.152 14.4594 7.152C14.4514 7.152 14.4394 7.16 14.4234 7.176C14.1754 7.504 13.9194 7.828 13.6554 8.148C13.3994 8.46 13.0914 8.72 12.7314 8.928C12.6754 8.96 12.6114 8.992 12.5394 9.024C12.4674 9.056 12.3994 9.072 12.3354 9.072C12.1834 9.072 12.1074 8.944 12.1074 8.688C12.1074 8.512 12.1594 8.292 12.2634 8.028C12.3754 7.756 12.5034 7.464 12.6474 7.152C12.7994 6.84 12.9274 6.536 13.0314 6.24C13.1434 5.936 13.1994 5.664 13.1994 5.424C13.1994 5.392 13.1914 5.356 13.1754 5.316C13.1674 5.276 13.1434 5.256 13.1034 5.256C13.0474 5.256 12.9714 5.296 12.8754 5.376C12.7794 5.448 12.6794 5.54 12.5754 5.652C12.4714 5.764 12.3794 5.872 12.2994 5.976C12.2274 6.08 12.1794 6.16 12.1554 6.216C12.1234 6.2 12.1074 6.18 12.1074 6.156C12.1074 6.084 12.1754 5.972 12.3114 5.82C12.4554 5.66 12.6234 5.496 12.8154 5.328C13.0074 5.152 13.1914 5.004 13.3674 4.884C13.5434 4.764 13.6674 4.704 13.7394 4.704C13.8274 4.704 13.8834 4.764 13.9074 4.884C13.9394 5.004 13.9554 5.096 13.9554 5.16C13.9554 5.312 13.9194 5.504 13.8474 5.736C13.7834 5.96 13.6994 6.204 13.5954 6.468C13.4914 6.724 13.3874 6.968 13.2834 7.2C13.1874 7.424 13.1074 7.612 13.0434 7.764C13.0274 7.82 12.9914 7.912 12.9354 8.04C12.8874 8.16 12.8634 8.256 12.8634 8.328C12.8634 8.448 12.9074 8.508 12.9954 8.508C13.0834 8.508 13.1874 8.456 13.3074 8.352C13.4354 8.24 13.5274 8.152 13.5834 8.088C13.9274 7.712 14.2234 7.288 14.4714 6.816C14.7274 6.344 14.9354 5.864 15.0954 5.376C15.1194 5.312 15.1314 5.268 15.1314 5.244C15.1394 5.212 15.1754 5.176 15.2394 5.136C15.2634 5.12 15.3354 5.076 15.4554 5.004C15.5834 4.932 15.7074 4.864 15.8274 4.8C15.9474 4.728 16.0074 4.692 16.0074 4.692C16.0154 4.692 16.0194 4.7 16.0194 4.716C16.0194 4.74 16.0074 4.768 15.9834 4.8C15.9594 4.832 15.9394 4.856 15.9234 4.872C15.8594 4.976 15.7914 5.116 15.7194 5.292C15.6554 5.468 15.5914 5.644 15.5274 5.82C15.4714 5.996 15.4234 6.144 15.3834 6.264C15.2234 6.744 15.0674 7.224 14.9154 7.704C14.7634 8.184 14.6034 8.66 14.4354 9.132C14.3154 9.468 14.1554 9.824 13.9554 10.2C13.7634 10.576 13.5354 10.928 13.2714 11.256C13.0074 11.592 12.7074 11.864 12.3714 12.072C12.0354 12.28 11.6634 12.384 11.2554 12.384ZM18.1076 9.036C17.9636 9.036 17.8676 8.996 17.8196 8.916C17.7716 8.828 17.7476 8.72 17.7476 8.592C17.7476 8.384 17.7796 8.152 17.8436 7.896C17.9156 7.632 17.9796 7.4 18.0356 7.2C17.8276 7.52 17.5876 7.836 17.3156 8.148C17.0436 8.46 16.7316 8.708 16.3796 8.892C16.3236 8.924 16.2596 8.956 16.1876 8.988C16.1156 9.012 16.0476 9.024 15.9836 9.024C15.8716 9.024 15.7956 8.984 15.7556 8.904C15.7236 8.824 15.7076 8.74 15.7076 8.652V8.604C15.7076 8.476 15.7316 8.348 15.7796 8.22C15.8276 8.084 15.8716 7.956 15.9116 7.836C15.9756 7.652 16.0516 7.424 16.1396 7.152C16.2356 6.872 16.3196 6.592 16.3916 6.312C16.4716 6.032 16.5116 5.804 16.5116 5.628C16.5116 5.556 16.4996 5.488 16.4756 5.424C16.4596 5.36 16.4076 5.324 16.3196 5.316C16.3196 5.316 16.3116 5.316 16.2956 5.316C16.2876 5.316 16.2836 5.312 16.2836 5.304C16.2836 5.28 16.3236 5.256 16.4036 5.232C16.4916 5.2 16.5956 5.168 16.7156 5.136C16.8356 5.104 16.9476 5.08 17.0516 5.064C17.1556 5.04 17.2236 5.028 17.2556 5.028C17.2716 5.028 17.2996 5.032 17.3396 5.04C17.3876 5.048 17.4116 5.072 17.4116 5.112C17.4116 5.128 17.4076 5.14 17.3996 5.148C17.3196 5.34 17.2276 5.568 17.1236 5.832C17.0196 6.096 16.9156 6.376 16.8116 6.672C16.7156 6.96 16.6356 7.244 16.5716 7.524C16.5076 7.796 16.4756 8.04 16.4756 8.256C16.4756 8.296 16.4836 8.336 16.4996 8.376C16.5156 8.416 16.5476 8.436 16.5956 8.436C16.6836 8.436 16.7916 8.384 16.9196 8.28C17.0556 8.176 17.1516 8.096 17.2076 8.04C17.5036 7.728 17.7716 7.348 18.0116 6.9C18.2516 6.452 18.4356 6.024 18.5636 5.616C18.6036 5.496 18.6436 5.412 18.6836 5.364C18.7236 5.308 18.7956 5.24 18.8996 5.16C19.0276 5.072 19.1676 4.992 19.3196 4.92C19.4796 4.848 19.6396 4.812 19.7996 4.812C19.8156 4.812 19.8356 4.824 19.8596 4.848C19.8836 4.864 19.8956 4.884 19.8956 4.908C19.8956 4.924 19.8836 4.936 19.8596 4.944C19.8436 4.944 19.8276 4.944 19.8116 4.944C19.7076 4.944 19.5996 5.008 19.4876 5.136C19.3756 5.264 19.2676 5.428 19.1636 5.628C19.0596 5.828 18.9636 6.036 18.8756 6.252C18.7956 6.468 18.7236 6.668 18.6596 6.852C18.6036 7.028 18.5636 7.16 18.5396 7.248C18.5076 7.4 18.4716 7.552 18.4316 7.704C18.3996 7.856 18.3836 8.012 18.3836 8.172C18.3836 8.236 18.3916 8.32 18.4076 8.424C18.4316 8.52 18.4916 8.568 18.5876 8.568C18.6436 8.568 18.6996 8.548 18.7556 8.508C18.9316 8.404 19.0996 8.264 19.2596 8.088C19.4196 7.904 19.5676 7.708 19.7036 7.5C19.8396 7.284 19.9476 7.088 20.0276 6.912C20.0436 6.92 20.0516 6.936 20.0516 6.96C20.0516 7.024 20.0076 7.128 19.9196 7.272C19.8396 7.408 19.7556 7.54 19.6676 7.668C19.5876 7.788 19.5436 7.86 19.5356 7.884C19.5276 7.94 19.5156 7.988 19.4996 8.028C19.4916 8.06 19.4756 8.104 19.4516 8.16C19.3556 8.264 19.2276 8.384 19.0676 8.52C18.9156 8.656 18.7556 8.776 18.5876 8.88C18.4196 8.984 18.2596 9.036 18.1076 9.036ZM19.8996 9.096C19.7476 9.096 19.5796 9.068 19.3956 9.012C19.2116 8.956 19.0756 8.852 18.9876 8.7V8.676C18.9876 8.636 19.0396 8.576 19.1436 8.496C19.2396 8.408 19.3436 8.324 19.4556 8.244C19.5676 8.156 19.6396 8.092 19.6716 8.052L19.7556 8.028L19.7796 8.076C19.7236 8.124 19.6956 8.176 19.6956 8.232C19.6956 8.352 19.7396 8.452 19.8276 8.532C19.9236 8.612 20.0316 8.672 20.1516 8.712C20.2796 8.752 20.3916 8.772 20.4876 8.772C20.5996 8.772 20.7396 8.74 20.9076 8.676C21.0836 8.612 21.2396 8.524 21.3756 8.412C21.5116 8.3 21.5796 8.176 21.5796 8.04C21.5796 7.832 21.5156 7.652 21.3876 7.5C21.2596 7.348 21.1116 7.204 20.9436 7.068C20.7756 6.932 20.6276 6.788 20.4996 6.636C20.3716 6.484 20.3076 6.308 20.3076 6.108C20.3076 5.876 20.3756 5.668 20.5116 5.484C20.6556 5.292 20.8356 5.132 21.0516 5.004C21.2756 4.868 21.5076 4.768 21.7476 4.704C21.9876 4.632 22.2076 4.596 22.4076 4.596C22.4396 4.596 22.5116 4.604 22.6236 4.62C22.7356 4.628 22.8396 4.648 22.9356 4.68C23.0396 4.704 23.0916 4.74 23.0916 4.788C23.0916 4.804 23.0876 4.812 23.0796 4.812H23.0556L22.9596 4.788C22.9836 4.844 22.9956 4.912 22.9956 4.992C22.9956 5.064 22.9796 5.156 22.9476 5.268C22.9156 5.38 22.8796 5.468 22.8396 5.532C22.8316 5.548 22.7916 5.6 22.7196 5.688C22.6476 5.776 22.5756 5.86 22.5036 5.94C22.4316 6.02 22.3876 6.06 22.3716 6.06L22.3596 6.036C22.3756 5.996 22.4276 5.928 22.5156 5.832C22.6036 5.728 22.6476 5.596 22.6476 5.436C22.6476 5.268 22.5716 5.132 22.4196 5.028C22.2676 4.916 22.1116 4.86 21.9516 4.86C21.7996 4.86 21.6396 4.908 21.4716 5.004C21.3116 5.1 21.1756 5.224 21.0636 5.376C20.9596 5.528 20.9076 5.684 20.9076 5.844C20.9076 5.988 20.9756 6.14 21.1116 6.3C21.2556 6.452 21.4156 6.608 21.5916 6.768C21.7756 6.92 21.9356 7.072 22.0716 7.224C22.2156 7.376 22.2876 7.52 22.2876 7.656V7.692C22.2876 7.892 22.1996 8.08 22.0236 8.256C21.8476 8.424 21.6276 8.572 21.3636 8.7C21.0996 8.828 20.8316 8.928 20.5596 9C20.2956 9.064 20.0756 9.096 19.8996 9.096ZM22.2951 9.156C22.2791 9.156 22.2711 9.152 22.2711 9.144C22.2711 9.112 22.2871 9.08 22.3191 9.048C22.3431 9.024 22.3631 9 22.3791 8.976C22.4431 8.872 22.5071 8.736 22.5711 8.568C22.6351 8.392 22.6951 8.216 22.7511 8.04C22.8151 7.856 22.8671 7.704 22.9071 7.584C23.0671 7.112 23.2231 6.636 23.3751 6.156C23.5271 5.676 23.6911 5.2 23.8671 4.728C23.9711 4.448 24.0951 4.132 24.2391 3.78C24.3831 3.42 24.5511 3.06 24.7431 2.7C24.9351 2.34 25.1511 2.012 25.3911 1.716C25.6391 1.412 25.9151 1.168 26.2191 0.983999C26.5231 0.799999 26.8591 0.707999 27.2271 0.707999C27.6271 0.707999 27.8911 0.779999 28.0191 0.924C28.1551 1.068 28.2231 1.216 28.2231 1.368C28.2231 1.432 28.1991 1.472 28.1511 1.488C28.1111 1.504 28.0911 1.484 28.0911 1.428C28.0911 1.26 28.0231 1.124 27.8871 1.02C27.7511 0.908 27.5911 0.852 27.4071 0.852C27.2391 0.852 27.0591 0.916 26.8671 1.044C26.6831 1.164 26.5071 1.308 26.3391 1.476C26.1711 1.644 26.0391 1.792 25.9431 1.92C25.6231 2.352 25.3631 2.752 25.1631 3.12C24.9631 3.488 24.7911 3.848 24.6471 4.2C24.5111 4.552 24.3791 4.924 24.2511 5.316C24.1311 5.708 23.9871 6.144 23.8191 6.624V6.672C23.8191 6.696 23.8231 6.708 23.8311 6.708C23.8551 6.684 23.8671 6.672 23.8671 6.672C24.1151 6.344 24.3671 6.024 24.6231 5.712C24.8871 5.392 25.2031 5.132 25.5711 4.932C25.6271 4.9 25.6911 4.868 25.7631 4.836C25.8351 4.796 25.9031 4.776 25.9671 4.776C26.0711 4.776 26.1311 4.824 26.1471 4.92C26.1711 5.008 26.1831 5.092 26.1831 5.172C26.1831 5.34 26.1271 5.56 26.0151 5.832C25.9111 6.096 25.7831 6.384 25.6311 6.696C25.4871 7.008 25.3591 7.316 25.2471 7.62C25.1431 7.916 25.0911 8.184 25.0911 8.424C25.0911 8.456 25.0951 8.496 25.1031 8.544C25.1191 8.584 25.1511 8.604 25.1991 8.604C25.2791 8.604 25.3871 8.54 25.5231 8.412C25.6591 8.276 25.7871 8.132 25.9071 7.98C26.0271 7.82 26.1031 7.704 26.1351 7.632C26.1671 7.664 26.1831 7.688 26.1831 7.704C26.1831 7.776 26.1111 7.892 25.9671 8.052C25.8311 8.204 25.6671 8.364 25.4751 8.532C25.2831 8.7 25.0991 8.844 24.9231 8.964C24.7471 9.084 24.6231 9.144 24.5511 9.144C24.4711 9.144 24.4151 9.084 24.3831 8.964C24.3591 8.844 24.3471 8.756 24.3471 8.7C24.3471 8.548 24.3791 8.356 24.4431 8.124C24.5151 7.892 24.5991 7.648 24.6951 7.392C24.7991 7.136 24.8991 6.892 24.9951 6.66C25.0991 6.428 25.1831 6.236 25.2471 6.084C25.2711 6.036 25.3071 5.952 25.3551 5.832C25.4031 5.704 25.4271 5.612 25.4271 5.556C25.4271 5.516 25.4191 5.472 25.4031 5.424C25.3951 5.376 25.3631 5.352 25.3071 5.352C25.2191 5.352 25.1111 5.404 24.9831 5.508C24.8631 5.612 24.7711 5.696 24.7071 5.76C24.3631 6.136 24.0631 6.564 23.8071 7.044C23.5591 7.516 23.3551 7.996 23.1951 8.484C23.1791 8.548 23.1671 8.592 23.1591 8.616C23.1511 8.64 23.1151 8.676 23.0511 8.724C23.0271 8.732 22.9511 8.772 22.8231 8.844C22.7031 8.916 22.5871 8.984 22.4751 9.048C22.3631 9.12 22.3031 9.156 22.2951 9.156ZM32.1608 9.756C32.0808 9.756 32.0168 9.744 31.9688 9.72C31.9208 9.696 31.8968 9.644 31.8968 9.564C31.8968 9.532 31.9048 9.484 31.9208 9.42C31.9448 9.356 31.9608 9.308 31.9688 9.276C32.0008 9.132 32.0248 8.988 32.0408 8.844C32.0648 8.692 32.0888 8.544 32.1128 8.4C32.1928 7.832 32.2608 7.264 32.3168 6.696C32.3808 6.12 32.4128 5.548 32.4128 4.98C32.4128 4.66 32.3928 4.32 32.3528 3.96C32.3208 3.6 32.2568 3.248 32.1608 2.904C32.0648 2.552 31.9248 2.24 31.7408 1.968C31.4928 2.032 31.1928 2.112 30.8408 2.208C30.4968 2.296 30.1528 2.376 29.8088 2.448C29.4648 2.512 29.1648 2.544 28.9088 2.544C28.7568 2.544 28.6208 2.516 28.5008 2.46C28.3808 2.396 28.3208 2.276 28.3208 2.1C28.3208 1.884 28.3848 1.696 28.5128 1.536C28.6328 1.368 28.7888 1.228 28.9808 1.116C29.1728 0.996 29.3768 0.908 29.5928 0.852C29.8088 0.788 30.0048 0.756 30.1808 0.756C30.5088 0.756 30.8408 0.812 31.1768 0.924C31.5128 1.036 31.8048 1.196 32.0528 1.404C32.1408 1.38 32.2808 1.344 32.4728 1.296C32.6648 1.24 32.8688 1.184 33.0848 1.128C33.3008 1.072 33.5008 1.024 33.6848 0.983999C33.8688 0.944 33.9968 0.924 34.0688 0.924H34.1048C34.2648 0.988 34.3608 1.048 34.3928 1.104C34.4328 1.16 34.4608 1.224 34.4768 1.296C34.5008 1.36 34.5608 1.452 34.6568 1.572C34.6728 1.604 34.6848 1.628 34.6928 1.644C34.7088 1.652 34.7168 1.676 34.7168 1.716C34.7168 1.732 34.7088 1.76 34.6928 1.8C34.6848 1.84 34.6648 1.86 34.6328 1.86C34.6088 1.86 34.5888 1.848 34.5728 1.824C34.5648 1.792 34.5568 1.768 34.5488 1.752C34.5088 1.656 34.4848 1.588 34.4768 1.548C34.4768 1.508 34.4608 1.476 34.4288 1.452C34.3968 1.428 34.3168 1.4 34.1888 1.368H34.1408C34.0608 1.368 33.9408 1.384 33.7808 1.416C33.6288 1.448 33.4608 1.492 33.2768 1.548C33.0928 1.596 32.9208 1.644 32.7608 1.692C32.6088 1.732 32.4888 1.764 32.4008 1.788C32.5768 2.044 32.7088 2.34 32.7968 2.676C32.8928 3.004 32.9608 3.344 33.0008 3.696C33.0408 4.048 33.0608 4.376 33.0608 4.68C33.0608 5.128 33.0368 5.576 32.9888 6.024C32.9488 6.472 32.9088 6.92 32.8688 7.368C32.8448 7.584 32.8208 7.8 32.7968 8.016C32.7808 8.232 32.7448 8.444 32.6888 8.652C32.8168 8.508 32.9328 8.356 33.0368 8.196C33.1408 8.028 33.2448 7.864 33.3488 7.704C33.5008 7.464 33.6488 7.224 33.7928 6.984C33.9448 6.736 34.0968 6.488 34.2488 6.24C34.5048 5.832 34.7888 5.396 35.1008 4.932C35.4128 4.46 35.7448 3.996 36.0968 3.54C36.4568 3.076 36.8288 2.644 37.2128 2.244C37.6048 1.844 38.0008 1.508 38.4008 1.236C38.6888 1.036 39.0128 0.855999 39.3728 0.696C39.7408 0.536 40.1008 0.456 40.4528 0.456C40.6608 0.456 40.8768 0.5 41.1008 0.588C41.3248 0.668 41.5128 0.788 41.6648 0.948C41.8248 1.108 41.9048 1.308 41.9048 1.548C41.9048 1.676 41.8848 1.812 41.8448 1.956C41.8048 2.1 41.7568 2.232 41.7008 2.352C41.6928 2.384 41.6608 2.452 41.6048 2.556C41.5568 2.652 41.5128 2.7 41.4728 2.7C41.4648 2.7 41.4608 2.688 41.4608 2.664C41.4608 2.576 41.4768 2.484 41.5088 2.388C41.5488 2.284 41.5688 2.176 41.5688 2.064C41.5688 1.84 41.4848 1.648 41.3168 1.488C41.1568 1.328 40.9608 1.204 40.7288 1.116C40.5048 1.028 40.2968 0.983999 40.1048 0.983999C39.8088 0.983999 39.5128 1.044 39.2168 1.164C38.9288 1.276 38.6648 1.412 38.4248 1.572C38.1848 1.724 37.9328 1.932 37.6688 2.196C37.4048 2.46 37.1448 2.748 36.8888 3.06C36.6408 3.364 36.4048 3.672 36.1808 3.984C35.9648 4.288 35.7728 4.56 35.6048 4.8C35.2368 5.344 34.8728 5.888 34.5128 6.432C34.1528 6.976 33.7968 7.528 33.4448 8.088C33.3648 8.216 33.2808 8.34 33.1928 8.46C33.1128 8.58 33.0288 8.7 32.9408 8.82C32.8848 8.9 32.8168 8.988 32.7368 9.084C32.6568 9.18 32.5968 9.276 32.5568 9.372C32.5408 9.404 32.5288 9.452 32.5208 9.516C32.5128 9.58 32.5008 9.624 32.4848 9.648C32.4528 9.688 32.4008 9.716 32.3288 9.732C32.2648 9.748 32.2088 9.756 32.1608 9.756ZM29.1008 2.016C29.3328 2.016 29.5848 1.992 29.8568 1.944C30.1288 1.896 30.4008 1.836 30.6728 1.764C30.9448 1.692 31.1928 1.628 31.4168 1.572C31.2328 1.38 31.0328 1.264 30.8168 1.224C30.6088 1.176 30.3768 1.152 30.1208 1.152C29.8968 1.152 29.6648 1.18 29.4248 1.236C29.1848 1.284 28.9848 1.4 28.8248 1.584C28.7928 1.616 28.7648 1.652 28.7408 1.692C28.7248 1.732 28.7168 1.776 28.7168 1.824C28.7168 1.92 28.7648 1.976 28.8608 1.992C28.9568 2.008 29.0368 2.016 29.1008 2.016ZM36.1503 9.048C35.6863 9.048 35.4543 8.812 35.4543 8.34C35.4543 7.988 35.5263 7.612 35.6703 7.212C35.8143 6.804 36.0023 6.416 36.2343 6.048C36.4663 5.672 36.7103 5.368 36.9663 5.136C37.2703 4.872 37.6263 4.74 38.0343 4.74C38.1303 4.74 38.2463 4.752 38.3823 4.776C38.5263 4.8 38.6503 4.848 38.7543 4.92C38.8583 4.984 38.9103 5.08 38.9103 5.208C38.9103 5.392 38.8423 5.604 38.7063 5.844C38.5703 6.076 38.4463 6.264 38.3343 6.408C38.3743 6.416 38.4223 6.428 38.4783 6.444C38.5423 6.46 38.5742 6.492 38.5742 6.54C38.5742 6.564 38.5543 6.576 38.5143 6.576C38.4423 6.576 38.3703 6.568 38.2983 6.552C38.2263 6.536 38.1543 6.528 38.0823 6.528C37.8103 6.528 37.5303 6.568 37.2423 6.648C36.9623 6.728 36.6943 6.812 36.4383 6.9C36.3583 7.092 36.2863 7.304 36.2223 7.536C36.1663 7.768 36.1383 7.988 36.1383 8.196C36.1383 8.348 36.1663 8.484 36.2223 8.604C36.2863 8.724 36.4063 8.784 36.5823 8.784C36.7983 8.784 37.0183 8.724 37.2423 8.604C37.4743 8.476 37.6943 8.316 37.9023 8.124C38.1183 7.924 38.3103 7.716 38.4783 7.5C38.6463 7.284 38.7783 7.088 38.8743 6.912C38.8823 6.92 38.8863 6.936 38.8863 6.96C38.8863 7.032 38.8423 7.132 38.7543 7.26C38.6663 7.38 38.5743 7.5 38.4783 7.62C38.3903 7.74 38.3383 7.828 38.3223 7.884C38.3143 7.94 38.2983 7.988 38.2743 8.028C38.2583 8.068 38.2383 8.112 38.2143 8.16C38.0783 8.296 37.8823 8.436 37.6263 8.58C37.3783 8.716 37.1183 8.828 36.8463 8.916C36.5823 9.004 36.3503 9.048 36.1503 9.048ZM36.6063 6.516C36.8143 6.476 37.0183 6.444 37.2183 6.42C37.4263 6.396 37.6343 6.384 37.8423 6.384C37.9063 6.384 37.9703 6.384 38.0343 6.384C38.0983 6.384 38.1623 6.388 38.2263 6.396C38.2903 6.26 38.3423 6.112 38.3823 5.952C38.4303 5.792 38.4543 5.636 38.4543 5.484C38.4543 5.364 38.4303 5.244 38.3823 5.124C38.3343 4.996 38.2303 4.932 38.0703 4.932C37.9183 4.932 37.7623 4.996 37.6023 5.124C37.4503 5.252 37.3263 5.368 37.2303 5.472C37.1023 5.624 36.9863 5.792 36.8823 5.976C36.7863 6.152 36.6943 6.332 36.6063 6.516ZM38.5398 9.156C38.5238 9.156 38.5158 9.152 38.5158 9.144C38.5158 9.112 38.5318 9.08 38.5638 9.048C38.5878 9.024 38.6078 9 38.6238 8.976C38.6958 8.856 38.7758 8.652 38.8638 8.364C38.9598 8.068 39.0518 7.744 39.1398 7.392C39.2358 7.04 39.3198 6.712 39.3918 6.408C39.4718 6.096 39.5278 5.86 39.5598 5.7C39.5758 5.636 39.5918 5.552 39.6078 5.448C39.6318 5.344 39.6598 5.24 39.6918 5.136C39.7238 5.032 39.7598 4.964 39.7998 4.932C39.8718 4.868 39.9798 4.812 40.1238 4.764C40.2678 4.716 40.4118 4.68 40.5558 4.656C40.7078 4.624 40.8318 4.608 40.9278 4.608C40.9438 4.608 40.9638 4.616 40.9878 4.632C41.0118 4.648 41.0278 4.664 41.0358 4.68L41.0478 4.716C41.0398 4.74 41.0278 4.752 41.0118 4.752C40.9958 4.744 40.9798 4.74 40.9638 4.74C40.8118 4.74 40.6718 4.828 40.5438 5.004C40.4158 5.172 40.3038 5.38 40.2078 5.628C40.1118 5.876 40.0278 6.116 39.9558 6.348C39.8918 6.572 39.8478 6.74 39.8238 6.852C39.9038 6.668 40.0078 6.46 40.1358 6.228C40.2718 5.988 40.4278 5.76 40.6038 5.544C40.7798 5.32 40.9718 5.136 41.1798 4.992C41.3878 4.84 41.6078 4.764 41.8398 4.764C41.8718 4.764 41.9238 4.772 41.9958 4.788C42.0758 4.796 42.1478 4.816 42.2118 4.848C42.2838 4.872 42.3198 4.904 42.3198 4.944L42.3078 4.956H42.2958L42.2238 4.932C42.2478 4.988 42.2638 5.044 42.2718 5.1C42.2798 5.156 42.2838 5.212 42.2838 5.268C42.2838 5.316 42.2678 5.42 42.2358 5.58C42.2118 5.74 42.1758 5.892 42.1278 6.036C42.0878 6.172 42.0438 6.24 41.9958 6.24C41.9638 6.24 41.9478 6.228 41.9478 6.204C41.9478 6.164 41.9598 6.1 41.9838 6.012C42.0158 5.916 42.0318 5.828 42.0318 5.748C42.0318 5.604 41.9958 5.488 41.9238 5.4C41.8518 5.312 41.7438 5.268 41.5998 5.268C41.3598 5.268 41.1278 5.372 40.9038 5.58C40.6798 5.78 40.4758 6.032 40.2918 6.336C40.1078 6.632 39.9518 6.932 39.8238 7.236C39.6958 7.54 39.6078 7.788 39.5598 7.98C39.5278 8.084 39.4998 8.22 39.4758 8.388C39.4518 8.548 39.3918 8.66 39.2958 8.724C39.2718 8.732 39.1958 8.772 39.0678 8.844C38.9478 8.916 38.8318 8.984 38.7198 9.048C38.5998 9.12 38.5398 9.156 38.5398 9.156ZM41.4927 9.156C41.4847 9.156 41.4807 9.152 41.4807 9.144C41.4807 9.112 41.4967 9.08 41.5287 9.048C41.5527 9.016 41.5687 8.992 41.5767 8.976C41.6327 8.888 41.7007 8.74 41.7807 8.532C41.8527 8.316 41.9247 8.076 41.9967 7.812C42.0767 7.54 42.1487 7.268 42.2127 6.996C42.2847 6.716 42.3487 6.46 42.4047 6.228C42.4607 5.996 42.5007 5.82 42.5247 5.7C42.5407 5.636 42.5567 5.552 42.5727 5.448C42.5887 5.344 42.6127 5.24 42.6447 5.136C42.6767 5.032 42.7127 4.964 42.7527 4.932C42.8247 4.868 42.9327 4.812 43.0767 4.764C43.2207 4.716 43.3687 4.68 43.5207 4.656C43.6727 4.624 43.7927 4.608 43.8807 4.608C43.9287 4.608 43.9647 4.632 43.9887 4.68L44.0007 4.716C43.9927 4.74 43.9807 4.752 43.9647 4.752C43.9487 4.744 43.9327 4.74 43.9167 4.74C43.7407 4.74 43.5847 4.84 43.4487 5.04C43.3207 5.232 43.2047 5.472 43.1007 5.76C43.0047 6.04 42.9247 6.312 42.8607 6.576C42.8047 6.84 42.7607 7.04 42.7287 7.176C42.9847 6.744 43.2767 6.324 43.6047 5.916C43.9407 5.508 44.3287 5.18 44.7687 4.932C44.8327 4.9 44.8967 4.868 44.9607 4.836C45.0327 4.796 45.1007 4.776 45.1647 4.776C45.2687 4.776 45.3327 4.824 45.3567 4.92C45.3807 5.008 45.3927 5.092 45.3927 5.172C45.3927 5.276 45.3607 5.424 45.2967 5.616C45.2407 5.8 45.1727 5.984 45.0927 6.168C45.0207 6.352 44.9607 6.496 44.9127 6.6C45.1607 6.272 45.4367 5.964 45.7407 5.676C46.0447 5.38 46.3807 5.132 46.7487 4.932C46.8047 4.9 46.8687 4.868 46.9407 4.836C47.0127 4.796 47.0807 4.776 47.1447 4.776C47.2487 4.776 47.3087 4.824 47.3247 4.92C47.3487 5.008 47.3607 5.092 47.3607 5.172C47.3607 5.292 47.3247 5.444 47.2527 5.628C47.1887 5.804 47.1127 5.984 47.0247 6.168C46.9447 6.344 46.8807 6.492 46.8327 6.612C46.7767 6.74 46.7207 6.872 46.6647 7.008C46.6167 7.144 46.5727 7.28 46.5327 7.416C46.5007 7.544 46.4647 7.688 46.4247 7.848C46.3847 8 46.3647 8.144 46.3647 8.28C46.3647 8.336 46.3727 8.4 46.3887 8.472C46.4127 8.544 46.4607 8.58 46.5327 8.58C46.5727 8.58 46.6047 8.572 46.6287 8.556C46.6607 8.54 46.6927 8.524 46.7247 8.508C46.9087 8.404 47.0847 8.264 47.2527 8.088C47.4287 7.904 47.5887 7.708 47.7327 7.5C47.8767 7.284 47.9967 7.088 48.0927 6.912C48.1007 6.92 48.1047 6.936 48.1047 6.96C48.1047 7.008 48.0767 7.08 48.0207 7.176C47.9647 7.264 47.9007 7.36 47.8287 7.464C47.7567 7.568 47.6887 7.66 47.6247 7.74C47.5687 7.82 47.5407 7.868 47.5407 7.884C47.5327 7.94 47.5207 7.988 47.5047 8.028C47.4887 8.06 47.4647 8.104 47.4327 8.16C47.3367 8.256 47.1967 8.376 47.0127 8.52C46.8367 8.656 46.6527 8.78 46.4607 8.892C46.2687 8.996 46.1007 9.048 45.9567 9.048C45.8367 9.048 45.7567 9.008 45.7167 8.928C45.6767 8.84 45.6567 8.744 45.6567 8.64C45.6567 8.432 45.7047 8.176 45.8007 7.872C45.8967 7.56 46.0047 7.248 46.1247 6.936C46.2447 6.624 46.3407 6.368 46.4127 6.168C46.4367 6.104 46.4727 6 46.5207 5.856C46.5767 5.712 46.6047 5.612 46.6047 5.556C46.6047 5.508 46.5967 5.46 46.5807 5.412C46.5647 5.364 46.5247 5.34 46.4607 5.34C46.3327 5.34 46.1767 5.424 45.9927 5.592C45.8167 5.76 45.6367 5.964 45.4527 6.204C45.2687 6.436 45.1047 6.664 44.9607 6.888C44.8247 7.104 44.7287 7.264 44.6727 7.368C44.5927 7.528 44.5167 7.696 44.4447 7.872C44.3727 8.04 44.3207 8.212 44.2887 8.388C44.2167 8.388 44.1207 8.436 44.0007 8.532C43.8887 8.628 43.7807 8.724 43.6767 8.82C43.5807 8.908 43.5207 8.952 43.4967 8.952C43.4807 8.952 43.4767 8.944 43.4847 8.928C43.4927 8.904 43.4967 8.884 43.4967 8.868L43.5087 8.784C43.5247 8.664 43.5487 8.548 43.5807 8.436C43.6207 8.316 43.6567 8.204 43.6887 8.1C43.7287 7.964 43.7727 7.828 43.8207 7.692C43.8767 7.548 43.9327 7.412 43.9887 7.284C44.0127 7.22 44.0567 7.108 44.1207 6.948C44.1927 6.78 44.2687 6.596 44.3487 6.396C44.4287 6.196 44.4967 6.02 44.5527 5.868C44.6087 5.708 44.6367 5.604 44.6367 5.556C44.6367 5.516 44.6287 5.472 44.6127 5.424C44.6047 5.376 44.5687 5.352 44.5047 5.352C44.4247 5.352 44.3207 5.404 44.1927 5.508C44.0727 5.612 43.9807 5.696 43.9167 5.76C43.5727 6.136 43.2727 6.564 43.0167 7.044C42.7687 7.516 42.5647 7.996 42.4047 8.484C42.3807 8.548 42.3647 8.592 42.3567 8.616C42.3567 8.64 42.3247 8.676 42.2607 8.724C42.2367 8.732 42.1607 8.772 42.0327 8.844C41.9127 8.916 41.7967 8.984 41.6847 9.048C41.5647 9.12 41.5007 9.156 41.4927 9.156ZM47.8597 9.024C47.7317 9.024 47.6477 8.976 47.6077 8.88C47.5757 8.776 47.5597 8.672 47.5597 8.568C47.5597 8.192 47.6317 7.788 47.7757 7.356C47.9197 6.924 48.1077 6.512 48.3397 6.12C48.5717 5.72 48.8237 5.392 49.0957 5.136C49.3837 4.872 49.7237 4.74 50.1157 4.74C50.2757 4.74 50.4317 4.76 50.5837 4.8C50.7437 4.832 50.8997 4.88 51.0517 4.944C51.1877 4.848 51.3357 4.764 51.4957 4.692C51.6557 4.62 51.8197 4.584 51.9877 4.584C52.0277 4.584 52.0597 4.608 52.0837 4.656V4.692C52.0837 4.716 52.0717 4.728 52.0477 4.728C52.0317 4.72 52.0157 4.716 51.9997 4.716C51.8717 4.716 51.7317 4.816 51.5797 5.016C51.4277 5.208 51.2757 5.456 51.1237 5.76C50.9717 6.064 50.8317 6.384 50.7037 6.72C50.5837 7.056 50.4837 7.364 50.4037 7.644C50.3317 7.924 50.2957 8.136 50.2957 8.28C50.2957 8.336 50.3037 8.4 50.3197 8.472C50.3437 8.544 50.3917 8.58 50.4637 8.58C50.5037 8.58 50.5357 8.572 50.5597 8.556C50.5917 8.54 50.6237 8.524 50.6557 8.508C50.8317 8.404 51.0037 8.264 51.1717 8.088C51.3477 7.904 51.5077 7.708 51.6517 7.5C51.8037 7.284 51.9277 7.088 52.0237 6.912C52.0317 6.92 52.0357 6.936 52.0357 6.96C52.0357 7.008 52.0077 7.08 51.9517 7.176C51.8957 7.264 51.8317 7.36 51.7597 7.464C51.6877 7.568 51.6197 7.66 51.5557 7.74C51.4997 7.82 51.4717 7.868 51.4717 7.884C51.4637 7.94 51.4517 7.988 51.4357 8.028C51.4197 8.06 51.3957 8.104 51.3637 8.16C51.2597 8.264 51.1277 8.384 50.9677 8.52C50.8077 8.656 50.6397 8.776 50.4637 8.88C50.2957 8.976 50.1317 9.024 49.9717 9.024C49.7237 9.024 49.5997 8.892 49.5997 8.628C49.5997 8.468 49.6317 8.284 49.6957 8.076C49.7677 7.86 49.8477 7.648 49.9357 7.44C50.0317 7.224 50.1157 7.044 50.1877 6.9C50.1877 6.892 50.1877 6.88 50.1877 6.864C50.1877 6.848 50.1837 6.84 50.1757 6.84C50.1677 6.84 50.1557 6.848 50.1397 6.864C50.0437 6.992 49.9037 7.176 49.7197 7.416C49.5357 7.656 49.3317 7.9 49.1077 8.148C48.8917 8.388 48.6717 8.596 48.4477 8.772C48.2237 8.94 48.0277 9.024 47.8597 9.024ZM48.3877 8.508C48.4757 8.508 48.5837 8.452 48.7117 8.34C48.8477 8.22 48.9877 8.08 49.1317 7.92C49.2837 7.752 49.4157 7.592 49.5277 7.44C49.6477 7.288 49.7317 7.176 49.7797 7.104C49.8757 6.96 49.9837 6.78 50.1037 6.564C50.2317 6.348 50.3397 6.124 50.4277 5.892C50.5237 5.66 50.5717 5.464 50.5717 5.304C50.5717 5.056 50.4477 4.932 50.1997 4.932C50.0557 4.932 49.9037 4.996 49.7437 5.124C49.5837 5.252 49.4557 5.368 49.3597 5.472C49.2557 5.6 49.1357 5.784 48.9997 6.024C48.8717 6.264 48.7517 6.524 48.6397 6.804C48.5277 7.084 48.4317 7.352 48.3517 7.608C48.2797 7.864 48.2437 8.076 48.2437 8.244C48.2437 8.292 48.2517 8.348 48.2677 8.412C48.2837 8.476 48.3237 8.508 48.3877 8.508Z" fill="white"/>
</svg>
